<?xml version="1.0" encoding="UTF-8" standalone="no"?>
<!DOCTYPE svg PUBLIC "-//W3C//DTD SVG 1.1//EN" "http://www.w3.org/Graphics/SVG/1.1/DTD/svg11.dtd">
<svg version="1.1" xmlns="http://www.w3.org/2000/svg" xmlns:xlink="http://www.w3.org/1999/xlink" preserveAspectRatio="xMidYMid meet" viewBox="0 0 1045 555" width="1045" height="555"><defs><path d="M957.72 445.47C955.02 451.14 952.92 455.48 952.39 456.59C951.61 458.2 950.83 459.78 950.07 461.36C941.47 478.92 933.44 494.46 926.63 507.23C914.02 530.81 889.57 545.65 862.83 545.92C852.73 546.03 802.19 546.58 711.23 547.57L709.63 547.57L696.64 547.71L685.52 547.83L651.43 548.2L650.05 548.2L632.7 548.39L632.17 548.39L525.2 549.55L429.72 550.55L418.61 550.67L349.63 551.42L349.55 551.42L304.82 551.9L304.34 551.9L162.88 553.43C137.49 553.71 123.38 553.86 120.56 553.89C111.53 553.99 102.54 552.7 93.9 550.07C78.87 545.53 65.36 536.98 54.82 525.33C36.65 505.3 23.4 481.94 14.51 456.59C12.58 451.1 11.27 446.58 10.91 445.47C-19.89 341.36 17.65 207.03 85.23 117.13C88.07 113.38 90.95 109.71 93.87 106.14C93.91 106.09 93.94 106.06 93.94 106.06C114.72 80.55 138.03 59.23 162.85 44.08C206.84 17.17 255.57 9.6 303.51 32.18C344.06 51.29 381.93 60.28 418.64 62.72C422.35 62.96 426.06 63.14 429.75 63.25C513.95 65.9 592.87 35.56 685.54 15.98C689.23 15.2 692.93 14.43 696.66 13.7C762.77 0.54 836.1 -6.4 923.32 8.19C932.38 9.67 941.32 11.81 950.07 14.59C955.84 16.45 960.07 18.18 961.18 18.58C1002.81 35.52 1025.51 66.81 1035.16 106.02C1036.53 111.48 1037.29 116.01 1037.53 117.12C1054.64 211.44 1004.54 345.21 961.18 438.08C959.45 441.82 958.06 444.73 957.72 445.47Z" id="a69Yr4dTLC"></path><path d="M162.85 553.54C137.46 553.82 123.35 553.97 120.53 554C111.5 554.1 102.51 552.81 93.87 550.18C93.87 520.57 93.87 372.53 93.87 106.06C93.91 106.06 93.94 106.06 93.94 106.06C114.72 80.52 138.03 59.2 162.85 44.08C162.85 44.08 162.85 213.9 162.85 553.54Z" id="g1MBabjBZp"></path><path d="M85.23 117.13C88.07 113.38 90.95 109.71 93.87 106.14L93.87 106.06C658.68 106.06 972.46 106.06 1035.21 106.06C1036.12 109.68 1036.91 113.37 1037.58 117.13C466.17 117.13 148.72 117.13 85.23 117.13Z" id="a1MruyUfOv"></path><path d="M961.18 445.46C959.1 445.46 957.95 445.46 957.72 445.46C955.02 451.13 952.92 455.47 952.39 456.58C951.61 458.19 950.83 459.77 950.07 461.35C950.07 416.67 950.07 59.23 950.07 14.56C953.91 15.8 957.62 17.14 961.18 18.59L961.18 445.46Z" id="b2EtCpewMu"></path><path d="M696.66 547.75L685.54 547.87C685.54 228.72 685.54 51.41 685.54 15.95C689.23 15.17 692.93 14.4 696.66 13.67C696.66 84.88 696.66 262.91 696.66 547.75Z" id="a28EMkmD7"></path><path d="M429.75 550.65L418.64 550.77C418.64 257.92 418.64 95.23 418.64 62.69C422.35 62.93 426.06 63.07 429.75 63.22C429.75 128.21 429.75 290.69 429.75 550.65Z" id="a4k5hlMYl6"></path><path d="M957.72 445.47C955.92 449.25 954.14 452.96 952.39 456.59C389.66 456.59 77.03 456.59 14.51 456.59C13.22 452.93 12.02 449.23 10.91 445.47C515.87 445.47 831.47 445.47 957.72 445.47Z" id="a1c54MYTEa"></path><path d="M230.53 265.75C230.53 265.75 230.53 265.75 230.53 265.75C230.53 300.33 230.53 319.55 230.53 323.39C230.53 323.39 230.53 323.39 230.53 323.39C219.13 323.39 212.8 323.39 211.53 323.39C211.53 323.39 211.53 323.39 211.53 323.39C211.53 288.81 211.53 269.59 211.53 265.75C211.53 265.75 211.53 265.75 211.53 265.75C222.93 265.75 229.26 265.75 230.53 265.75Z" id="i21oBZHxH"></path><path d="M741.7 262.75C741.7 262.75 741.7 262.75 741.7 262.75C741.7 299.34 741.7 319.67 741.7 323.73C741.7 323.73 741.7 323.73 741.7 323.73C730.31 323.73 723.97 323.73 722.71 323.73C722.71 323.73 722.71 323.73 722.71 323.73C722.71 287.14 722.71 266.81 722.71 262.75C722.71 262.75 722.71 262.75 722.71 262.75C734.1 262.75 740.44 262.75 741.7 262.75Z" id="bqsE4mtY5"></path><path d="M862.83 546.48L710.96 547.88L709.34 547.91L651.62 548.44L650.24 548.46L632.7 548.61L632.18 548.61L525.23 549.6L349.67 551.23L349.52 551.23L304.89 551.65L304.41 551.66L106.07 553.48L106.07 538.48L152.7 510.49L246.27 509.71L248.27 509.7L248.93 509.69L250.93 509.66L295.86 509.29L297.87 509.28L298.51 509.27L300.51 509.26L314.91 509.14L315.29 509.13L350.83 508.83L351.12 508.83L628.44 506.49L635.22 506.44L635.9 506.44L641.08 506.39L678.72 506.08L680.72 506.05L682.57 506.03L683.53 506.03L695.24 505.94L697.56 505.91L700.66 505.89L710.41 505.8L725.88 505.67L727.88 505.65L731.36 505.63L732 505.63L806.69 504.99L862.83 533.49L862.83 533.49L862.83 546.48Z" id="a1IX3nZzDO"></path><path d="M862.83 546.48L710.96 547.88L709.34 547.91L651.62 548.44L650.24 548.46L632.7 548.61L632.18 548.61L525.23 549.6L349.67 551.23L349.52 551.23L304.89 551.65L304.41 551.66L106.07 553.48L106.07 538.48L152.7 510.49L246.27 509.71L248.27 509.7L248.93 509.69L250.93 509.66L295.86 509.29L297.87 509.28L298.51 509.27L300.51 509.26L314.91 509.14L315.29 509.13L350.83 508.83L351.12 508.83L628.44 506.49L635.22 506.44L635.9 506.44L641.08 506.39L678.72 506.08L680.72 506.05L682.57 506.03L683.53 506.03L695.24 505.94L697.56 505.91L700.66 505.89L710.41 505.8L725.88 505.67L727.88 505.65L731.36 505.63L732 505.63L806.69 504.99L862.83 533.49L862.83 533.49L862.83 546.48Z" id="c96ckMozU"></path><path d="M296.01 483.51C296.01 498.2 296.01 506.36 296.01 507.99C296.01 510.36 294.65 512.52 292.51 513.53C291.73 513.91 290.88 514.12 290.01 514.13C286.52 514.21 258.61 514.8 255.12 514.87C254.19 514.89 253.27 514.7 252.42 514.3C250.25 513.3 248.85 511.13 248.85 508.73C248.85 507.05 248.85 498.64 248.85 483.51L296.01 483.51Z" id="av4Rh2RJC"></path><path d="M296.01 483.51C296.01 498.2 296.01 506.36 296.01 507.99C296.01 510.36 294.65 512.52 292.51 513.53C291.73 513.91 290.88 514.12 290.01 514.13C286.52 514.21 258.61 514.8 255.12 514.87C254.19 514.89 253.27 514.7 252.42 514.3C250.25 513.3 248.85 511.13 248.85 508.73C248.85 507.05 248.85 498.64 248.85 483.51L296.01 483.51Z" id="c4ADlu9JF"></path><path d="M298.01 483.51C298.01 498.2 298.01 506.36 298.01 507.99C298.01 510.36 296.65 512.52 294.51 513.53C293.73 513.91 292.88 514.12 292.01 514.13C288.52 514.21 260.61 514.8 257.12 514.87C256.19 514.89 255.27 514.7 254.42 514.3C252.24 513.3 250.85 511.13 250.85 508.73C250.85 507.05 250.85 498.64 250.85 483.51L298.01 483.51Z" id="a1TfOYzcym"></path><path d="M727.88 483.51C727.88 483.51 727.88 483.51 727.88 483.51C727.88 502.41 727.88 512.9 727.88 515C727.88 515 727.88 515 727.88 515C699.58 515 683.86 515 680.72 515C680.72 515 680.72 515 680.72 515C680.72 496.11 680.72 485.61 680.72 483.51C680.72 483.51 680.72 483.51 680.72 483.51C709.01 483.51 724.73 483.51 727.88 483.51Z" id="b16OfGFdSr"></path><path d="M727.88 483.51C727.88 483.51 727.88 483.51 727.88 483.51C727.88 502.41 727.88 512.9 727.88 515C727.88 515 727.88 515 727.88 515C699.58 515 683.86 515 680.72 515C680.72 515 680.72 515 680.72 515C680.72 496.11 680.72 485.61 680.72 483.51C680.72 483.51 680.72 483.51 680.72 483.51C709.01 483.51 724.73 483.51 727.88 483.51Z" id="bs5gnAONW"></path><path d="M725.88 483.51C725.88 483.51 725.88 483.51 725.88 483.51C725.88 502.41 725.88 512.9 725.88 515C725.88 515 725.88 515 725.88 515C697.58 515 681.87 515 678.72 515C678.72 515 678.72 515 678.72 515C678.72 496.11 678.72 485.61 678.72 483.51C678.72 483.51 678.72 483.51 678.72 483.51C707.01 483.51 722.73 483.51 725.88 483.51Z" id="a2hYnIl2Rb"></path><path d="M230.53 271.47L211.53 270.98L211.53 265.74L230.53 265.74L230.53 265.74L230.53 271.47Z" id="dXGyGnJcp"></path><path d="M332.73 268.32C332.43 270.49 330.55 272.08 328.36 272.03C316.18 271.71 255.26 270.13 145.62 267.29C143.53 267.23 142.38 267.2 142.15 267.2C139.77 267.14 137.89 265.17 137.95 262.8C137.95 262.64 137.97 262.49 137.99 262.33C140.55 245.17 161.05 107.86 163.61 90.7C163.95 88.5 165.92 86.92 168.15 87.07C186.49 88.32 333.21 98.25 351.55 99.49C353.92 99.63 355.72 101.65 355.59 104.02C355.58 104.14 355.57 104.25 355.55 104.37C350.99 137.16 335.01 251.92 332.73 268.32Z" id="a66Gb0DrK3"></path><path d="M156.55 250.41L324.5 255.74L345.15 109.79L175.88 99.13L175.88 99.13L156.55 250.41Z" id="ePI6UaSIe"></path><path d="M583.76 96.79C587.31 96.79 589.09 98.57 589.09 102.12C589.09 199.69 589.09 253.9 589.09 264.74C589.09 268.29 587.31 270.07 583.76 270.07C467.39 270.07 402.74 270.07 389.81 270.07C386.26 270.07 384.48 268.29 384.48 264.74C384.48 167.17 384.48 112.96 384.48 102.12C384.48 98.57 386.26 96.79 389.81 96.79C506.18 96.79 570.83 96.79 583.76 96.79Z" id="cqLPnZC95"></path><path d="M580.08 108.46C580.08 108.46 580.08 108.46 580.08 108.46C580.08 195.03 580.08 243.12 580.08 252.74C580.08 252.74 580.08 252.74 580.08 252.74C468.52 252.74 406.54 252.74 394.14 252.74C394.14 252.74 394.14 252.74 394.14 252.74C394.14 166.17 394.14 118.08 394.14 108.46C394.14 108.46 394.14 108.46 394.14 108.46C505.7 108.46 567.69 108.46 580.08 108.46Z" id="a21DGUBBRA"></path><path d="M741.7 266.53L722.71 266.92L722.71 262.74L741.7 262.74L741.7 262.74L741.7 266.53Z" id="d2tsbBTwya"></path><path d="M827.41 259.54C827.52 261.24 826.23 262.7 824.53 262.81C824.49 262.82 824.45 262.82 824.41 262.82C805.69 263.21 655.98 266.3 637.26 266.69C635.65 266.72 634.29 265.5 634.14 263.9C632.53 247.18 619.66 113.39 618.05 96.67C617.89 94.98 619.13 93.47 620.82 93.31C620.87 93.31 620.92 93.3 620.97 93.3C633.35 92.69 695.26 89.61 806.69 84.06C807.89 84 808.56 83.97 808.69 83.96C810.34 83.88 811.77 85.12 811.91 86.76C815.01 121.32 824.31 224.98 827.41 259.54Z" id="bVRcuJBy6"></path><path d="M798.35 94.79L812.68 246.74L644.4 250.74L628.74 103.13L628.74 103.13L798.35 94.79Z" id="a2mgjnDh1S"></path><path d="M827.41 259.54C827.52 261.24 826.23 262.7 824.53 262.81C824.49 262.82 824.45 262.82 824.41 262.82C823.23 250.9 817.32 191.32 806.69 84.06C807.89 84 808.56 83.97 808.69 83.96C810.34 83.88 811.77 85.12 811.91 86.76C815.01 121.32 824.31 224.98 827.41 259.54Z" id="e2gtbx4JLp"></path><path d="M145.62 267.29C143.53 267.23 142.38 267.2 142.15 267.2C139.77 267.14 137.89 265.17 137.95 262.8C137.95 262.64 137.97 262.49 137.99 262.33C140.55 245.17 161.05 107.86 163.61 90.7C163.95 88.48 165.94 86.9 168.18 87.06C168.18 87.06 160.66 147.14 145.62 267.29Z" id="aBHh8jlqk"></path><path d="M230.53 306.32C230.53 306.32 230.53 306.32 230.53 306.32C230.53 316.56 230.53 322.25 230.53 323.39C230.53 323.39 230.53 323.39 230.53 323.39C219.13 323.39 212.8 323.39 211.53 323.39C211.53 323.39 211.53 323.39 211.53 323.39C211.53 313.15 211.53 307.45 211.53 306.32C211.53 306.32 211.53 306.32 211.53 306.32C222.93 306.32 229.26 306.32 230.53 306.32Z" id="bjt2nwHoB"></path><path d="M298.01 488.47L250.85 489.73L250.85 483.5L298.01 483.5L298.01 483.5L298.01 488.47Z" id="cfqBeN46q"></path><path d="M381.23 480.41C381.21 482.54 379.51 484.28 377.38 484.36C364.61 484.7 300.75 486.4 185.79 489.46C185.76 489.46 185.75 489.46 185.74 489.46C183.57 489.43 181.82 487.68 181.79 485.51C181.79 468.19 181.79 329.59 181.79 312.26C181.82 310.09 183.57 308.34 185.74 308.32C204.9 308.32 358.13 308.32 377.28 308.32C379.45 308.34 381.21 310.09 381.23 312.26C381.23 345.89 381.23 463.6 381.23 480.41Z" id="a12OQvTTg"></path><path d="M185.79 489.46C185.76 489.46 185.75 489.46 185.74 489.46C183.57 489.43 181.82 487.68 181.79 485.51C181.79 468.19 181.79 329.59 181.79 312.26C181.82 310.09 183.57 308.34 185.74 308.32C185.75 308.32 185.77 368.7 185.79 489.46Z" id="a3bc3EjKqA"></path><path d="M371.99 319.05L371.99 467.26L194.54 471.26L194.54 319.05L194.54 319.05L371.99 319.05Z" id="e2uIYaJnO"></path><path d="M741.7 306.32C741.7 306.32 741.7 306.32 741.7 306.32C741.7 316.76 741.7 322.57 741.7 323.73C741.7 323.73 741.7 323.73 741.7 323.73C730.31 323.73 723.97 323.73 722.71 323.73C722.71 323.73 722.71 323.73 722.71 323.73C722.71 313.28 722.71 307.48 722.71 306.32C722.71 306.32 722.71 306.32 722.71 306.32C734.1 306.32 740.44 306.32 741.7 306.32Z" id="d33ljbUanx"></path><path d="M725.88 489.91L678.72 488.65L678.72 483.5L725.88 483.5L725.88 483.5L725.88 489.91Z" id="c12ADpFfI8"></path><path d="M788.11 485.51C788.08 487.7 786.3 489.46 784.11 489.46C784.11 489.46 784.11 489.46 784.11 489.46C669.13 486.4 605.25 484.7 592.48 484.36C590.35 484.28 588.65 482.54 588.63 480.41C588.63 463.6 588.63 329.08 588.63 312.26C588.66 310.09 590.41 308.34 592.58 308.32C611.73 308.32 764.96 308.32 784.12 308.32C786.3 308.32 788.08 310.08 788.11 312.26C788.11 346.91 788.11 468.19 788.11 485.51Z" id="jJX5MKEle"></path><path d="M788.11 485.51C788.08 487.7 786.3 489.46 784.11 489.46C784.11 489.46 784.11 489.46 784.11 489.46L784.11 308.32C784.11 308.32 784.11 308.32 784.11 308.32C786.3 308.32 788.08 310.08 788.11 312.26C788.11 346.91 788.11 468.19 788.11 485.51Z" id="bgRNmxskc"></path><path d="M597.92 319.05L597.92 467.26L775.36 471.26L775.36 319.05L775.36 319.05L597.92 319.05Z" id="aJxea59G6"></path><path d="M583.67 480.41C583.65 482.54 581.95 484.28 579.82 484.36C567.05 484.7 503.19 486.4 388.23 489.46C388.23 489.46 388.23 489.46 388.23 489.46C386.04 489.46 384.26 487.7 384.23 485.51C384.23 468.19 384.23 329.59 384.23 312.26C384.26 310.09 386.01 308.34 388.18 308.32C407.33 308.32 560.57 308.32 579.72 308.32C581.89 308.34 583.64 310.09 583.67 312.26C583.67 345.89 583.67 463.6 583.67 480.41Z" id="a1np2Zpz9q"></path><path d="M574.42 319.05L574.42 467.26L396.98 471.26L396.98 319.05L396.98 319.05L574.42 319.05Z" id="ikw4SNZVr"></path><path d="M862.83 546.48L710.96 547.88L709.34 547.91L651.62 548.44L650.24 548.46L632.7 548.61L632.18 548.61L525.23 549.6L349.67 551.23L349.52 551.23L304.89 551.65L304.41 551.66L106.07 553.48L106.07 538.48L308.52 537.16L309 537.16L349.97 536.88L350.16 536.88L633.16 535.01L633.45 535.01L633.62 535L634.09 535L638.87 534.97L640.33 534.97L714.8 534.47L719.2 534.45L720.18 534.44L862.83 533.49L862.83 533.49L862.83 546.48Z" id="a1HTVsoyi"></path><path d="M487.11 220.76C458.77 220.76 435.8 243.74 435.8 272.08C435.8 300.42 458.77 323.39 487.11 323.39C515.45 323.39 538.42 300.42 538.42 272.08C538.42 243.74 515.45 220.76 487.11 220.76Z" id="b3YzmyIayp"></path><path d="M304.31 552.01C304.31 551.9 304.37 551.78 304.41 551.66C305.41 548.07 307.19 542 308.52 537.16C308.69 536.56 308.85 535.97 309 535.41C310.46 529.94 313.32 517.13 314.91 509.14C315.47 506.33 315.91 504.15 316 503.05C316.2 501.36 319.21 494.13 322.62 485.82C325.01 479.98 327.62 473.6 329.53 468.23C330.78 465.03 331.76 461.74 332.46 458.38C332.61 457.68 332.61 456.95 332.46 456.25C332.16 455.11 332 453.93 331.98 452.75C331.98 452.75 331.98 452.75 331.98 452.75C331.75 446.55 333.6 436.76 336.46 432.65C339.96 427.65 342.45 408.99 342.45 408.99C342.45 408.99 347.63 409.74 348.45 405.47C348.54 405 348.57 404.53 348.55 404.07C348.55 403.69 348.52 403.32 348.46 402.96C347.57 396.72 363.18 390.08 371.96 388.65C372.95 388.48 373.95 388.39 374.95 388.37C377.09 388.14 379.18 387.66 381.2 386.93C382.6 386.5 383.9 386.03 384.2 385.93C387.88 384.69 392.28 383.05 396.95 381.25C414.5 374.45 435.76 365.26 435.76 365.26C435.91 364.55 436.08 363.87 436.27 363.2C438.4 354.65 444.46 347.62 452.61 344.27C452.61 344.27 452.61 344.27 452.61 344.27C452.61 343.61 452.61 342.94 452.61 342.27C452.61 338.83 452.46 335.28 452.31 331.74C452.31 331.05 452.25 330.36 452.21 329.67C452.21 329.47 452.21 329.26 452.21 329.06C452.21 328.86 452.21 328.71 452.21 328.54C452.21 327.84 452.14 327.14 452.1 326.45C452.08 326.44 451.94 326.32 451.92 326.31C450.39 325.15 449.07 323.73 448.02 322.11C447.44 321.17 446.97 320.16 446.6 319.11C445.35 315.72 445.06 311.94 444.22 308.37C444.21 308.29 444.06 307.7 444.04 307.63C442.95 304.01 441.61 300.48 440.04 297.05C437.84 291.63 436.14 286.05 434.45 280.4C433.42 276.99 432.38 273.56 431.34 270.13C430.39 266.98 429.86 265.24 429.76 264.89C429.46 263.89 429.16 262.89 428.93 261.89C428.93 261.89 428.93 261.89 428.93 261.89C428.82 261.43 428.73 260.96 428.67 260.49C428.39 258.96 428.47 257.38 428.91 255.88C429.3 254.86 429.74 253.86 430.23 252.88C430.44 252.44 430.6 251.98 430.73 251.5C430.73 251.5 430.73 251.5 430.73 251.5C430.76 251.4 430.79 251.29 430.81 251.18C430.88 250.83 430.92 250.47 430.92 250.1C430.88 248.79 430.71 247.49 430.4 246.21C430.39 246.2 430.39 246.18 430.4 246.16C430.39 246.07 430.37 245.98 430.35 245.89C430.17 244.9 430.05 243.9 429.99 242.9C429.64 237.48 430.84 232.08 433.46 227.33C433.48 227.29 433.63 227.01 433.65 226.97C434.2 226 434.81 225.08 435.49 224.19C435.49 224.19 435.49 224.19 435.49 224.19C435.8 223.77 436.12 223.37 436.49 222.97C435.09 224.31 432.79 223.72 431.49 222.28C431.27 222.06 431.09 221.8 430.94 221.53C430.85 221.39 430.77 221.24 430.71 221.08C430.66 220.96 430.62 220.83 430.58 220.7C429.88 218.25 431.1 215.64 432.7 213.65C434.27 211.72 436.22 210.12 438.44 208.96C438.44 208.96 438.44 208.96 438.44 208.96C438.56 208.88 438.7 208.81 438.84 208.75C439.68 208.32 440.57 207.97 441.47 207.69C441.47 207.69 441.47 207.69 441.47 207.69C442.01 207.51 442.55 207.36 443.1 207.25C442.86 207.22 441.62 207.11 439.39 206.91C438.5 206.82 438 206.78 437.9 206.77C439.42 200.71 444.66 196.31 450.89 195.86C451 195.86 451.86 195.86 451.97 195.86C452.5 195.87 453.02 195.91 453.54 195.99C451.84 195.24 450.78 193.52 450.89 191.66C453.51 193.71 456.75 194.79 460.08 194.72C460.12 194.72 460.42 194.72 460.46 194.72C460.29 193.64 460.17 192.55 460.12 191.45C460.12 191.45 460.12 191.45 460.12 191.45C460.02 189.97 460.02 188.48 460.12 186.99C461.93 188.71 464.41 189.54 466.9 189.25C466.69 188.96 465.03 186.64 464.82 186.35C466.67 187.83 469.01 188.56 471.38 188.4C471.42 188.4 471.81 188.36 471.85 188.35C472.26 188.31 472.66 188.23 473.04 188.12C473.05 188.12 473.13 188.12 473.13 188.12C472.94 187.88 472.77 187.63 472.6 187.37C472.6 187.36 472.55 187.26 472.54 187.25C472.13 186.6 471.79 185.9 471.55 185.16C471.45 184.88 471.37 184.59 471.31 184.29C471.31 184.29 471.31 184.29 471.31 184.29C470.87 182.48 471.03 180.57 471.75 178.85C474.98 181.54 478.52 185.23 482.75 182.44C486.98 179.65 487.12 174.54 493.75 175.06C497.46 175.41 500.68 177.75 502.16 181.17C504.07 179.01 507.16 178.3 509.82 179.42C512.44 180.67 514 183.43 513.7 186.31C516.45 185.62 519.41 184.94 522.05 185.98C524.69 187.02 526.39 190.39 524.89 192.64C524.85 192.71 524.8 192.78 524.75 192.84C523.52 194.43 520.8 195.3 521.09 197.3C521.12 197.32 521.26 197.42 521.51 197.6C522.29 198.16 522.72 198.48 522.81 198.54C530.46 204.06 536.22 208.98 537.7 210.14C540.18 212.21 542.82 214.71 542.99 217.96C543.02 218.76 542.94 219.56 542.75 220.33C542.75 220.33 542.75 220.33 542.75 220.33C542.59 221.11 542.37 221.89 542.2 222.67C541.78 224.66 541.66 226.7 541.86 228.72C541.86 228.72 541.86 228.72 541.86 228.72C541.93 229.31 542.02 229.89 542.13 230.48C543.66 238.21 549.84 244.58 550.45 252.47C550.45 252.53 550.45 252.98 550.45 253.03C550.49 253.88 550.46 254.72 550.38 255.56C549.92 260.36 547.7 264.97 545.9 269.56C545.79 269.84 545.68 270.12 545.58 270.4C542.11 279.39 540.11 288.98 538.58 298.55C538.09 301.94 537.42 305.31 536.59 308.64C535.67 312.44 533.94 316 531.5 319.06C530.52 320.21 529.39 321.22 528.14 322.06C527.29 322.6 526.41 323.07 525.49 323.47C525.49 323.47 525.49 323.47 525.49 323.53C525.6 324.14 525.69 324.75 525.8 325.36C525.86 325.68 525.91 326 525.97 326.36C525.97 326.36 525.97 326.36 525.97 326.36C525.96 326.38 525.96 326.4 525.97 326.42C526.81 331.15 527.77 335.78 528.78 340.18C528.83 340.39 529.24 342.15 529.29 342.36C541.88 346.91 543.37 356.23 543.46 359.8C543.5 360.28 543.5 360.75 543.46 361.23C543.46 361.23 562.46 361.73 569.95 367.23C571.36 368.18 572.87 368.95 574.46 369.53C577.49 370.67 580.57 371.63 583.71 372.42C585.32 372.84 587 373.25 588.71 373.65C591.71 374.34 594.89 375 597.96 375.64C606.14 377.29 613.85 378.64 617.76 379.64C627.09 382 648.42 402.46 648.42 402.46C648.42 402.46 650.92 423.09 653.42 426.1C655.92 429.11 660.42 439.68 660.42 439.68C661.52 441.65 667.03 451.45 676.95 469.09L683.95 481.45C686.65 481.45 688.15 481.45 688.45 481.45C689.07 481.45 690.29 482.33 691.66 483.55C692.85 484.61 694.17 485.93 695.33 487.13C695.45 487.27 696.09 487.95 697.25 489.18C697.97 489.98 698.37 490.42 698.45 490.51C698.45 490.51 705.71 490.69 707.68 496.44C713.6 496.27 720.87 496.66 725.96 498.94C726.65 499.24 727.32 499.6 727.96 500.02C730.07 501.24 731.56 503.29 732.08 505.67C732.19 506.15 732.25 506.63 732.26 507.11C732.26 507.68 732.26 508.25 732.26 508.81C731.91 516.38 726.98 522.68 722.45 526.92C722.48 526.98 722.74 527.43 722.77 527.49C722.77 527.49 722.62 527.85 722.33 528.49C722.25 528.68 722.15 528.89 722.04 529.13C722.04 529.13 722.04 529.13 722.04 529.13C721.45 530.39 720.51 532.28 719.28 534.49C716.67 539.27 713.45 543.69 709.71 547.65C709.69 547.67 709.6 547.77 709.42 547.95L651.7 548.48L651.53 548.28L640.33 534.93L634.76 528.29L634.59 528.08L634.43 529.67L633.9 534.97L632.6 547.77L632.53 548.41L632.53 548.58L632.38 550.06L632.49 548.58L632.2 548.58L525.23 549.58L349.66 551.52L349.66 552.36L349.52 552.36L349.52 551.52L304.79 552C304.53 552.01 304.37 552.01 304.31 552.01Z" id="c1A02yTKTy"></path><linearGradient id="gradientci4qFu58w" gradientUnits="userSpaceOnUse" x1="518.25" y1="552.36" x2="518.25" y2="174.73"><stop style="stop-color: #808080;stop-opacity: 0.25" offset="0%"></stop><stop style="stop-color: #808080;stop-opacity: 0.12" offset="54%"></stop><stop style="stop-color: #808080;stop-opacity: 0.1" offset="100%"></stop></linearGradient><path d="M448.46 377.04C451.9 372.71 452.85 359.85 452.66 345.2C452.6 340.76 452.44 336.15 452.21 331.56C451.11 309.56 448.46 288.07 448.46 288.07C448.46 288.07 535.44 247.08 525.44 279.57C521.44 292.7 522.75 311.13 525.79 328.44C526.68 333.49 527.71 338.44 528.79 343.13C531.42 354.6 534.64 365.91 538.43 377.04C538.43 377.04 438.97 389.04 448.46 377.04Z" id="b1SHlbzga5"></path><path d="M448.46 377.04C451.9 372.71 452.85 359.85 452.66 345.2C467.83 338.73 487.12 343.55 487.12 343.55C507.43 339.51 520.46 340.3 528.79 343.13C531.42 354.6 534.64 365.91 538.43 377.04C538.43 377.04 438.97 389.04 448.46 377.04Z" id="aQjRHr6VA"></path><path d="M349.63 551.52L525.2 549.61L632.17 548.61L632.47 548.61L632.36 550.09L632.51 548.61L632.7 548.61L632.7 548.44L634.07 535L634.58 529.91L634.74 528.32L634.88 526.99L641.06 506.38L647.24 485.81L652.44 468.49C657.2 452.6 659.85 443.78 660.38 442.01C660.38 442.01 655.88 431.52 653.38 428.52C653.38 428.52 648.38 405.03 648.38 405.03C648.38 405.03 627.05 384.7 617.72 382.36C613.81 381.36 606.09 380.03 597.9 378.36C594.83 377.74 591.68 377.08 588.65 376.36C586.94 375.97 585.26 375.56 583.65 375.15C580.52 374.37 577.43 373.42 574.4 372.3C572.82 371.72 571.31 370.95 569.9 370.01C562.56 364.62 544.14 364.01 543.43 364.01C543.43 364.01 543.43 364.01 543.43 364.01C543.43 363.98 543.43 363.96 543.43 363.94C543.43 363.93 543.43 363.86 543.43 363.85C543.46 363.43 543.46 363.01 543.43 362.59C543.43 362.19 543.43 361.72 543.34 361.19C543.34 361.03 543.34 360.86 543.27 360.69C543.22 360.33 543.16 359.95 543.07 359.55C543.04 359.37 543 359.19 542.95 359.02C542.66 357.82 542.24 356.65 541.7 355.53C541.63 355.37 541.54 355.2 541.46 355.04C540.97 354.12 540.4 353.24 539.76 352.41C539.63 352.24 539.49 352.06 539.34 351.89C538.53 350.93 537.61 350.04 536.63 349.25C536.36 349.04 536.08 348.82 535.79 348.62C535.62 348.49 535.45 348.37 535.28 348.26C535.22 348.22 534.92 348.03 534.39 347.68C533.89 347.4 533.61 347.24 533.56 347.2C532.83 346.8 532.06 346.41 531.22 346.04C530.96 345.92 530.68 345.81 530.4 345.7C530.12 345.59 529.68 345.42 529.31 345.28C529.3 345.28 529.28 345.28 529.25 345.28C528.8 345.1 528.55 345 528.5 344.98C527.93 344.79 527.35 344.62 526.74 344.45C526.68 344.44 526.37 344.36 525.81 344.21L524.81 343.98C524.21 343.86 523.88 343.79 523.81 343.77C522.81 343.57 521.74 343.39 520.62 343.25C520.54 343.25 520.16 343.2 519.48 343.11L518.31 342.99L517.1 342.89L515.38 342.79C514.18 342.75 513.52 342.73 513.38 342.72C504.56 342.72 495.77 343.66 487.15 345.51C481.16 344.18 475.03 343.62 468.9 343.83C468.84 343.83 468.55 343.83 468.03 343.83L467.03 343.89L466.39 343.89C465.61 343.97 465.18 344.01 465.1 344.01C464.67 344.01 464.23 344.1 463.8 344.16C463.37 344.22 462.92 344.27 462.49 344.34C462.42 344.36 461.89 344.44 461.83 344.45C461.18 344.56 460.52 344.68 459.83 344.82C459.5 344.88 459.23 344.96 459.17 344.97C458.3 345.16 457.43 345.39 456.57 345.65C456.14 345.77 455.71 345.91 455.28 346.06C455.06 346.12 454.85 346.2 454.64 346.28C454.6 346.3 454.38 346.38 454 346.51L453.37 346.76C452.92 346.94 452.67 347.04 452.62 347.06C452.24 347.22 451.87 347.39 451.5 347.57C451.29 347.66 451.08 347.76 450.88 347.87C450.68 347.98 450.47 348.07 450.28 348.18C448.02 349.35 445.93 350.82 444.07 352.56C444.04 352.59 443.87 352.76 443.56 353.05C443.26 353.36 443.1 353.53 443.06 353.56C442.89 353.73 442.73 353.91 442.57 354.09C441.92 354.8 441.31 355.55 440.75 356.34C440.59 356.55 440.44 356.76 440.29 356.98C439.66 357.92 439.09 358.89 438.58 359.9C438.45 360.14 438.33 360.39 438.21 360.63C437.39 362.32 436.72 364.07 436.21 365.88C435.93 366.88 435.75 367.68 435.7 367.88C435.47 368.88 414.53 377.21 396.98 383.97C392.31 385.77 387.91 387.4 384.23 388.63C383.16 388.99 382.16 389.32 381.23 389.63C379.22 390.36 377.12 390.84 374.98 391.07C373.98 391.09 372.98 391.18 371.99 391.35C363.92 392.66 350.09 398.35 348.58 404.06C348.46 404.51 348.43 404.99 348.48 405.46C348.48 405.46 348.48 405.53 348.48 405.57C349.48 412.56 342.48 411.56 342.48 411.56C342.48 411.56 339.99 430.06 336.49 435.06C333.96 438.66 332.23 446.68 332.01 452.74C332.01 452.74 332.01 452.74 332.01 452.74C331.88 454.63 332.03 456.52 332.45 458.37C332.45 458.42 332.45 458.47 332.45 458.51C332.85 459.85 331.89 463.51 330.26 468.2C328.49 473.34 325.91 479.74 323.43 485.78C319.69 494.9 316.17 503.18 315.95 504.99C315.86 505.8 315.6 507.25 315.24 509.12C313.78 516.74 310.54 531.25 308.95 537.12C307.76 541.49 306.03 547.49 304.84 551.61C304.84 551.73 304.77 551.85 304.74 551.96C307.72 551.93 322.66 551.78 349.55 551.52L349.55 552.36L349.69 552.36L349.63 551.52Z" id="b3uL0Mh8QJ"></path><path d="M365.99 434.53C365.99 434.53 422.97 464.02 443.46 460.52C443.46 460.52 365.99 434.53 365.99 434.53Z" id="g13sdp6Y4"></path><path d="M555.93 443.02C574.42 445.52 481.95 422.53 481.95 422.53C496.75 426.63 537.43 440.52 555.93 443.02Z" id="a5LqQMO1ff"></path><path d="M436.33 368.01C444.97 337.02 487.14 347.55 487.14 347.55C539.33 337.14 543.33 358.75 543.49 364.63C514.5 369.97 459.92 368.82 436.33 368.01Z" id="a5wfFrM7Qq"></path><path d="M436.33 366.01C444.97 335.02 487.14 345.55 487.14 345.55C539.33 335.14 543.33 356.75 543.49 362.63C514.5 367.97 459.92 366.82 436.33 366.01Z" id="b5ykllZryQ"></path><path d="M697.39 499.26C697.39 499.26 731.54 494.01 732.2 509C732.2 509 714.79 534.48 714.79 534.48C711.31 527.43 700.87 506.3 697.39 499.26Z" id="dZYdJihC"></path><path d="M521.29 330.18C510.51 333.9 499.65 337.65 488.3 339.01C476.95 340.37 465.05 339.17 455.15 333.51C454.11 332.92 453.11 332.27 452.15 331.56C451.05 309.56 448.4 288.07 448.4 288.07C448.4 288.07 535.38 247.08 525.38 279.57C521.4 292.7 522.75 311.13 525.79 328.44C524.32 329.1 522.82 329.68 521.29 330.18Z" id="a1uCI001I"></path><path d="M464.72 190.12C464.93 190.41 466.59 192.72 466.8 193.01C464.32 193.3 461.84 192.47 460.02 190.76C459.83 193.35 459.94 195.95 460.34 198.51C456.9 198.68 453.51 197.61 450.78 195.51C450.67 197.36 451.73 199.08 453.42 199.82C446.27 198.96 439.6 203.55 437.83 210.53C438.35 210.57 442.52 210.96 443.04 211.01C438.94 211.88 435.26 214.13 432.61 217.37C431.01 219.37 429.79 221.93 430.49 224.37C431.19 226.81 434.57 228.37 436.41 226.63C431.11 232.95 428.88 241.29 430.31 249.41C430.78 251.12 430.94 252.91 430.77 254.67C430.44 256.32 429.4 257.75 428.88 259.36C427.88 262.28 428.83 265.45 429.72 268.36C430.19 269.9 433.94 282.23 434.41 283.77C436.11 289.34 437.8 294.92 440.01 300.31C441.59 303.71 442.92 307.23 444.01 310.81C445.27 315.65 445.32 320.95 448.01 325.18C449.86 327.84 452.32 330.01 455.19 331.51C465.08 337.17 477.02 338.37 488.34 337.01C499.66 335.65 510.51 331.9 521.28 328.18C523.67 327.46 525.97 326.45 528.12 325.18C535.57 320.3 537.22 310.32 538.61 301.54C540.16 291.74 542.23 281.96 545.9 272.75C548.08 267.26 550.9 261.69 550.42 255.81C549.81 248 543.63 241.68 542.1 234C541.59 231.43 541.62 228.79 542.17 226.23C542.65 224.71 542.91 223.13 542.96 221.53C542.79 218.31 540.15 215.83 537.67 213.76C529.61 207.03 522.69 202.3 521.02 201.03C520.73 199.03 523.45 198.17 524.68 196.59C526.42 194.36 524.62 190.82 521.98 189.78C519.34 188.74 516.38 189.42 513.63 190.11C514.09 186.5 511.54 183.2 507.93 182.74C505.72 182.46 503.53 183.31 502.09 185C500.6 181.59 497.37 179.26 493.67 178.93C487.04 178.41 486.91 183.47 482.67 186.26C478.43 189.05 474.93 185.37 471.68 182.69C470.46 185.78 470.97 189.27 473.03 191.87C470.14 192.64 467.06 191.99 464.72 190.12Z" id="ad8kGPMG7"></path><path d="M722.71 529.25C722.71 529.25 721.82 531.37 720.18 534.44C717.7 539.16 714.68 543.58 711.18 547.6C711.16 547.62 711.07 547.72 710.91 547.89L709.29 547.89L651.57 548.42L650.19 548.42L650.02 548.22L638.82 534.94L634.6 529.93L634.43 529.72L634.08 529.3L633.88 529.06L633.62 528.75L625.41 519.01L628.41 506.51L633.52 485.46L633.65 484.95L634.64 480.95L635.35 477.95L637.73 468.18L645.89 434.54L660.39 442.03L675.67 469.03L683.88 483.52C686.58 483.52 688.08 483.52 688.38 483.52C689.23 483.52 691.18 485.16 693.14 487.05C693.84 487.72 694.54 488.43 695.14 489.05C696.92 490.89 698.33 492.47 698.33 492.47C698.33 492.47 705.61 492.63 707.57 498.37C707.67 498.64 707.76 498.93 707.82 499.22C708.47 501.47 709.32 503.67 710.35 505.77C711.64 508.58 713.26 511.77 714.9 514.96C717.95 520.81 721.05 526.38 722.19 528.4C722.2 528.41 722.24 528.5 722.33 528.65C722.53 528.97 722.66 529.17 722.71 529.25Z" id="b6A9805tat"></path><path d="M636.73 485.54L636.73 485.64L636.56 487.94L635.23 506.44L633.63 528.74L633.17 535.02L632.17 548.45L632.17 548.62L525.2 549.62L349.66 551.52L349.66 552.36L349.52 552.36L349.52 551.52L349.52 551.24L349.97 536.89L350.83 508.83L351.57 485.05C351.61 483.63 351.64 482.84 351.64 482.68C351.82 476.87 356.67 472.3 362.49 472.48C362.68 472.49 362.87 472.5 363.06 472.51C367.78 472.91 373.91 473.4 381.23 473.92C381.53 473.95 383.93 474.12 384.23 474.14C426.55 477.08 504.75 480.88 583.67 476.14C585.33 476.05 587 475.95 588.67 475.83C600.91 475.06 613.13 474.07 625.24 472.83C631.02 472.23 636.2 476.43 636.8 482.21C636.87 482.82 636.88 483.44 636.83 484.06C636.83 484.07 636.8 484.56 636.73 485.54Z" id="c2eAe4VJBo"></path><path d="M349.63 551.52L525.2 549.61L632.17 548.61L632.47 548.61L632.47 548.44L633.47 535.01L633.9 529.01L635.53 506.4L636.82 488.51C636.82 488.25 636.82 488.1 636.82 488.07C636.88 487.25 636.85 486.42 636.71 485.6C636.72 485.57 636.72 485.53 636.71 485.5C636.44 483.81 635.75 482.22 634.71 480.86C632.48 477.99 628.92 476.48 625.3 476.86C613.19 478.1 600.97 479.09 588.73 479.86C587.06 479.98 585.39 480.08 583.73 480.17C504.81 484.86 426.61 481.06 384.29 478.17C383.99 478.15 381.59 477.98 381.29 477.95C373.97 477.43 367.84 476.95 363.12 476.54C357.74 476.09 352.89 479.77 351.88 485.07C351.78 485.61 351.72 486.16 351.7 486.71C351.66 488.19 351.43 495.57 351.02 508.86L350.09 536.93L349.65 551.28L349.65 551.56L349.65 552.4L349.63 551.52Z" id="bBdNHyup4"></path><path d="M635.9 506.44L634.08 529.29L633.62 535.01L632.62 547.81L632.56 548.45L632.56 548.62L632.56 548.62L632.41 550.1L632.52 548.62L632.23 548.62L525.26 549.62L349.66 551.52L349.66 551.24L350.15 536.89L351.15 508.83C351.54 497.65 351.75 491.43 351.79 490.19C351.86 488.03 353.01 486.06 354.85 484.94C355.98 484.25 357.31 483.93 358.63 484.04C360.73 484.21 363.31 484.41 366.32 484.63C371.21 484.99 377.23 485.41 384.25 485.85C397.25 486.67 413.55 487.55 432.24 488.27C484.22 490.27 554.4 490.94 621.06 485.1C624.06 484.84 627.16 484.55 630.19 484.26C631.39 484.14 632.59 484.37 633.67 484.92C633.97 485.07 634.26 485.25 634.52 485.46C635.4 486.09 636.08 486.94 636.52 487.92C636.63 488.12 636.71 488.32 636.77 488.53C637.07 489.36 637.2 490.24 637.13 491.12C636.97 493.16 636.56 498.27 635.9 506.44Z" id="b2VZcn1npY"></path><path d="M298.01 504.8C298.01 506.72 298.01 507.78 298.01 507.99C298.01 510.36 296.65 512.52 294.51 513.53C290.5 513.61 258.43 514.23 254.42 514.3C252.24 513.3 250.85 511.13 250.85 508.73C250.85 508.53 250.85 507.53 250.85 505.73L298.01 504.8Z" id="h2SK02emzg"></path><path d="M246.27 516.41L246.27 507.74L298.51 506.74L298.51 515.41L298.51 515.41L246.27 516.41Z" id="c2W61LI5Q4"></path><path d="M246.27 516.41L246.27 507.74L298.51 506.74L298.51 515.41L298.51 515.41L246.27 516.41Z" id="c6qn8BkoVr"></path><path d="M248.27 516.41L248.27 507.74L300.51 506.74L300.51 515.41L300.51 515.41L248.27 516.41Z" id="c1FF34ZyyD"></path><path d="M471.56 184.25C471.31 185.8 471.46 187.38 471.97 188.85C472.47 188.81 472.96 188.72 473.44 188.59C472.47 187.32 471.82 185.83 471.56 184.25Z" id="c16gDdcSRo"></path><path d="M460.75 195.23C460.56 194 460.44 192.77 460.38 191.53C460.38 192.76 460.38 194 460.38 195.24C460.45 195.24 460.67 195.23 460.75 195.23Z" id="gWY1qzIM2"></path><path d="M542.58 225.94C543.06 224.42 543.33 222.84 543.38 221.25C543.36 220.89 543.31 220.54 543.22 220.19C543.05 221.11 542.78 222.03 542.58 222.94C542.18 224.8 542.06 226.7 542.22 228.59C542.28 227.7 542.4 226.81 542.58 225.94Z" id="e9WzneHk"></path><path d="M522.52 198.49C523.44 197.82 524.3 197.08 525.09 196.27C525.85 195.21 526 193.83 525.47 192.63C525.37 192.86 525.24 193.07 525.09 193.27C523.86 194.85 521.14 195.72 521.43 197.7C521.65 197.86 522.41 198.41 522.52 198.49Z" id="b2YPuD8mS"></path><path d="M439.28 207.32C438.92 208.05 438.63 208.81 438.42 209.6C439.98 208.72 441.66 208.09 443.41 207.71C442.59 207.63 440.11 207.39 439.28 207.32Z" id="b6XrKZ9Ws"></path><path d="M451.19 195.21C451.17 195.61 451.2 196 451.28 196.39C451.88 196.36 452.48 196.38 453.07 196.44C452.41 196.08 451.79 195.67 451.19 195.21Z" id="a23Wxmr9LV"></path><path d="M546.31 269.46C542.64 278.67 540.57 288.45 539.02 298.26C537.63 307.05 536.03 317.02 528.53 321.89C526.39 323.17 524.09 324.18 521.7 324.89C510.92 328.62 500.06 332.36 488.71 333.72C477.36 335.08 465.46 333.89 455.56 328.23C452.69 326.73 450.23 324.56 448.38 321.9C445.71 317.67 445.66 312.37 444.38 307.54C443.29 303.94 441.96 300.43 440.38 297.02C438.18 291.64 436.48 286.02 434.79 280.49C432.44 272.79 430.57 266.61 430.1 265.07C429.58 263.52 429.2 261.93 428.96 260.32C428.57 262.88 429.33 265.56 430.1 268.07C432.44 275.8 434.32 281.95 434.79 283.49C436.48 289.06 438.18 294.64 440.38 300.02C441.96 303.43 443.29 306.94 444.38 310.53C445.64 315.37 445.69 320.67 448.38 324.9C450.23 327.56 452.69 329.73 455.56 331.23C465.46 336.89 477.39 338.08 488.71 336.72C500.03 335.36 510.88 331.62 521.7 327.89C524.09 327.18 526.39 326.17 528.53 324.89C535.98 320.02 537.63 310.04 539.02 301.26C540.57 291.45 542.64 281.67 546.31 272.46C548.49 266.98 551.31 261.41 550.83 255.52C550.83 255.46 550.81 255.4 550.81 255.34C550.4 260.19 548.14 264.86 546.31 269.46Z" id="a1xPnpDMBT"></path><path d="M431.16 251.36C431.34 249.6 431.18 247.82 430.7 246.11C430.5 245.02 430.37 243.91 430.31 242.8C430.19 244.91 430.32 247.03 430.7 249.11C430.86 249.89 431.04 250.68 431.16 251.47C431.16 251.45 431.16 251.4 431.16 251.36Z" id="hiL8cx6Lv"></path><path d="M436.82 223.35C434.99 225.1 431.61 223.54 430.9 221.11C430.64 222.09 430.64 223.13 430.9 224.11C431.4 225.6 432.66 226.71 434.21 227.02C434.98 225.73 435.85 224.5 436.82 223.35Z" id="a1JnbK2AF"></path><path d="M683.89 505C680.72 515 683.89 483.51 683.89 483.51C683.89 487.81 687.06 495.01 683.89 505Z" id="c2aNLOdBjI"></path><path d="M695.72 512.42C692.72 515.01 697.39 495.24 697.39 495.24C697.05 498.67 698.72 509.83 695.72 512.42Z" id="a12XSatRIg"></path><path d="M198.93 342.75L300.51 341.76" id="d42XIZNjsb"></path><path d="M198.93 355.22L300.51 354.23" id="a1akHqYwO"></path><path d="M198.93 367.7L300.51 366.7" id="atrdBaOCn"></path></defs><g><g><g><use xlink:href="#a69Yr4dTLC" opacity="1" fill="#04022c" fill-opacity="1"></use><g><use xlink:href="#a69Yr4dTLC" opacity="1" fill-opacity="0" stroke="#000000" stroke-width="1" stroke-opacity="0"></use></g></g><g><use xlink:href="#g1MBabjBZp" opacity="1" fill="#1e1d32" fill-opacity="1"></use><g><use xlink:href="#g1MBabjBZp" opacity="1" fill-opacity="0" stroke="#000000" stroke-width="1" stroke-opacity="0"></use></g></g><g><use xlink:href="#a1MruyUfOv" opacity="1" fill="#0f00ff" fill-opacity="1"></use><g><use xlink:href="#a1MruyUfOv" opacity="1" fill-opacity="0" stroke="#000000" stroke-width="1" stroke-opacity="0"></use></g></g><g><use xlink:href="#b2EtCpewMu" opacity="1" fill="#0f00ff" fill-opacity="1"></use><g><use xlink:href="#b2EtCpewMu" opacity="1" fill-opacity="0" stroke="#000000" stroke-width="1" stroke-opacity="0"></use></g></g><g><use xlink:href="#a28EMkmD7" opacity="1" fill="#0f00ff" fill-opacity="1"></use><g><use xlink:href="#a28EMkmD7" opacity="1" fill-opacity="0" stroke="#000000" stroke-width="1" stroke-opacity="0"></use></g></g><g><use xlink:href="#a4k5hlMYl6" opacity="1" fill="#0f00ff" fill-opacity="1"></use><g><use xlink:href="#a4k5hlMYl6" opacity="1" fill-opacity="0" stroke="#000000" stroke-width="1" stroke-opacity="0"></use></g></g><g><use xlink:href="#a1c54MYTEa" opacity="1" fill="#0f00ff" fill-opacity="1"></use><g><use xlink:href="#a1c54MYTEa" opacity="1" fill-opacity="0" stroke="#000000" stroke-width="1" stroke-opacity="0"></use></g></g><g><use xlink:href="#i21oBZHxH" opacity="1" fill="#3f3d56" fill-opacity="1"></use><g><use xlink:href="#i21oBZHxH" opacity="1" fill-opacity="0" stroke="#000000" stroke-width="1" stroke-opacity="0"></use></g></g><g><use xlink:href="#bqsE4mtY5" opacity="1" fill="#3f3d56" fill-opacity="1"></use><g><use xlink:href="#bqsE4mtY5" opacity="1" fill-opacity="0" stroke="#000000" stroke-width="1" stroke-opacity="0"></use></g></g><g><use xlink:href="#a1IX3nZzDO" opacity="1" fill="#65617d" fill-opacity="1"></use><g><use xlink:href="#a1IX3nZzDO" opacity="1" fill-opacity="0" stroke="#000000" stroke-width="1" stroke-opacity="0"></use></g></g><g><use xlink:href="#c96ckMozU" opacity="1" fill="#000000" fill-opacity="1"></use><g><use xlink:href="#c96ckMozU" opacity="1" fill-opacity="0" stroke="#000000" stroke-width="1" stroke-opacity="0"></use></g></g><g><use xlink:href="#av4Rh2RJC" opacity="1" fill="#3f3d56" fill-opacity="1"></use><g><use xlink:href="#av4Rh2RJC" opacity="1" fill-opacity="0" stroke="#000000" stroke-width="1" stroke-opacity="0"></use></g></g><g><use xlink:href="#c4ADlu9JF" opacity="1" fill="#000000" fill-opacity="1"></use><g><use xlink:href="#c4ADlu9JF" opacity="1" fill-opacity="0" stroke="#000000" stroke-width="1" stroke-opacity="0"></use></g></g><g><use xlink:href="#a1TfOYzcym" opacity="1" fill="#3f3d56" fill-opacity="1"></use><g><use xlink:href="#a1TfOYzcym" opacity="1" fill-opacity="0" stroke="#000000" stroke-width="1" stroke-opacity="0"></use></g></g><g><use xlink:href="#b16OfGFdSr" opacity="1" fill="#3f3d56" fill-opacity="1"></use><g><use xlink:href="#b16OfGFdSr" opacity="1" fill-opacity="0" stroke="#000000" stroke-width="1" stroke-opacity="0"></use></g></g><g><use xlink:href="#bs5gnAONW" opacity="1" fill="#000000" fill-opacity="1"></use><g><use xlink:href="#bs5gnAONW" opacity="1" fill-opacity="0" stroke="#000000" stroke-width="1" stroke-opacity="0"></use></g></g><g><use xlink:href="#a2hYnIl2Rb" opacity="1" fill="#3f3d56" fill-opacity="1"></use><g><use xlink:href="#a2hYnIl2Rb" opacity="1" fill-opacity="0" stroke="#000000" stroke-width="1" stroke-opacity="0"></use></g></g><g><use xlink:href="#dXGyGnJcp" opacity="1" fill="#000000" fill-opacity="1"></use><g><use xlink:href="#dXGyGnJcp" opacity="1" fill-opacity="0" stroke="#000000" stroke-width="1" stroke-opacity="0"></use></g></g><g><use xlink:href="#a66Gb0DrK3" opacity="1" fill="#65617d" fill-opacity="1"></use><g><use xlink:href="#a66Gb0DrK3" opacity="1" fill-opacity="0" stroke="#000000" stroke-width="1" stroke-opacity="0"></use></g></g><g><use xlink:href="#ePI6UaSIe" opacity="1" fill="#a0a8b9" fill-opacity="1"></use><g><use xlink:href="#ePI6UaSIe" opacity="1" fill-opacity="0" stroke="#000000" stroke-width="1" stroke-opacity="0"></use></g></g><g><use xlink:href="#cqLPnZC95" opacity="1" fill="#65617d" fill-opacity="1"></use><g><use xlink:href="#cqLPnZC95" opacity="1" fill-opacity="0" stroke="#000000" stroke-width="1" stroke-opacity="0"></use></g></g><g><use xlink:href="#a21DGUBBRA" opacity="1" fill="#a0a8b9" fill-opacity="1"></use><g><use xlink:href="#a21DGUBBRA" opacity="1" fill-opacity="0" stroke="#000000" stroke-width="1" stroke-opacity="0"></use></g></g><g><use xlink:href="#d2tsbBTwya" opacity="1" fill="#000000" fill-opacity="1"></use><g><use xlink:href="#d2tsbBTwya" opacity="1" fill-opacity="0" stroke="#000000" stroke-width="1" stroke-opacity="0"></use></g></g><g><use xlink:href="#bVRcuJBy6" opacity="1" fill="#65617d" fill-opacity="1"></use><g><use xlink:href="#bVRcuJBy6" opacity="1" fill-opacity="0" stroke="#000000" stroke-width="1" stroke-opacity="0"></use></g></g><g><use xlink:href="#a2mgjnDh1S" opacity="1" fill="#a0a8b9" fill-opacity="1"></use><g><use xlink:href="#a2mgjnDh1S" opacity="1" fill-opacity="0" stroke="#000000" stroke-width="1" stroke-opacity="0"></use></g></g><g><use xlink:href="#e2gtbx4JLp" opacity="1" fill="#000000" fill-opacity="1"></use><g><use xlink:href="#e2gtbx4JLp" opacity="1" fill-opacity="0" stroke="#000000" stroke-width="1" stroke-opacity="0"></use></g></g><g><use xlink:href="#aBHh8jlqk" opacity="1" fill="#000000" fill-opacity="1"></use><g><use xlink:href="#aBHh8jlqk" opacity="1" fill-opacity="0" stroke="#000000" stroke-width="1" stroke-opacity="0"></use></g></g><g><use xlink:href="#bjt2nwHoB" opacity="1" fill="#000000" fill-opacity="1"></use><g><use xlink:href="#bjt2nwHoB" opacity="1" fill-opacity="0" stroke="#000000" stroke-width="1" stroke-opacity="0"></use></g></g><g><use xlink:href="#cfqBeN46q" opacity="1" fill="#000000" fill-opacity="1"></use><g><use xlink:href="#cfqBeN46q" opacity="1" fill-opacity="0" stroke="#000000" stroke-width="1" stroke-opacity="0"></use></g></g><g><use xlink:href="#a12OQvTTg" opacity="1" fill="#65617d" fill-opacity="1"></use><g><use xlink:href="#a12OQvTTg" opacity="1" fill-opacity="0" stroke="#000000" stroke-width="1" stroke-opacity="0"></use></g></g><g><use xlink:href="#a3bc3EjKqA" opacity="1" fill="#000000" fill-opacity="1"></use><g><use xlink:href="#a3bc3EjKqA" opacity="1" fill-opacity="0" stroke="#000000" stroke-width="1" stroke-opacity="0"></use></g></g><g><use xlink:href="#e2uIYaJnO" opacity="1" fill="#08111b" fill-opacity="1"></use><g><use xlink:href="#e2uIYaJnO" opacity="1" fill-opacity="0" stroke="#000000" stroke-width="1" stroke-opacity="0"></use></g></g><g><use xlink:href="#d33ljbUanx" opacity="1" fill="#000000" fill-opacity="1"></use><g><use xlink:href="#d33ljbUanx" opacity="1" fill-opacity="0" stroke="#000000" stroke-width="1" stroke-opacity="0"></use></g></g><g><use xlink:href="#c12ADpFfI8" opacity="1" fill="#000000" fill-opacity="1"></use><g><use xlink:href="#c12ADpFfI8" opacity="1" fill-opacity="0" stroke="#000000" stroke-width="1" stroke-opacity="0"></use></g></g><g><use xlink:href="#jJX5MKEle" opacity="1" fill="#65617d" fill-opacity="1"></use><g><use xlink:href="#jJX5MKEle" opacity="1" fill-opacity="0" stroke="#000000" stroke-width="1" stroke-opacity="0"></use></g></g><g><use xlink:href="#bgRNmxskc" opacity="1" fill="#000000" fill-opacity="1"></use><g><use xlink:href="#bgRNmxskc" opacity="1" fill-opacity="0" stroke="#000000" stroke-width="1" stroke-opacity="0"></use></g></g><g><use xlink:href="#aJxea59G6" opacity="1" fill="#004596" fill-opacity="1"></use><g><use xlink:href="#aJxea59G6" opacity="1" fill-opacity="0" stroke="#000000" stroke-width="1" stroke-opacity="0"></use></g></g><g><use xlink:href="#a1np2Zpz9q" opacity="1" fill="#65617d" fill-opacity="1"></use><g><use xlink:href="#a1np2Zpz9q" opacity="1" fill-opacity="0" stroke="#000000" stroke-width="1" stroke-opacity="0"></use></g></g><g><use xlink:href="#ikw4SNZVr" opacity="1" fill="#cad7e7" fill-opacity="1"></use><g><use xlink:href="#ikw4SNZVr" opacity="1" fill-opacity="0" stroke="#000000" stroke-width="1" stroke-opacity="0"></use></g></g><g><use xlink:href="#a1HTVsoyi" opacity="1" fill="#000000" fill-opacity="1"></use><g><use xlink:href="#a1HTVsoyi" opacity="1" fill-opacity="0" stroke="#000000" stroke-width="1" stroke-opacity="0"></use></g></g><g><use xlink:href="#b3YzmyIayp" opacity="1" fill="#fbbebe" fill-opacity="1"></use><g><use xlink:href="#b3YzmyIayp" opacity="1" fill-opacity="0" stroke="#000000" stroke-width="1" stroke-opacity="0"></use></g></g><g><use xlink:href="#c1A02yTKTy" opacity="1" fill="url(#gradientci4qFu58w)"></use><g><use xlink:href="#c1A02yTKTy" opacity="1" fill-opacity="0" stroke="#000000" stroke-width="1" stroke-opacity="0"></use></g></g><g><use xlink:href="#b1SHlbzga5" opacity="1" fill="#fbbebe" fill-opacity="1"></use><g><use xlink:href="#b1SHlbzga5" opacity="1" fill-opacity="0" stroke="#000000" stroke-width="1" stroke-opacity="0"></use></g></g><g><use xlink:href="#aQjRHr6VA" opacity="1" fill="#000000" fill-opacity="1"></use><g><use xlink:href="#aQjRHr6VA" opacity="1" fill-opacity="0" stroke="#000000" stroke-width="1" stroke-opacity="0"></use></g></g><g><use xlink:href="#b3uL0Mh8QJ" opacity="1" fill="#6c63ff" fill-opacity="1"></use><g><use xlink:href="#b3uL0Mh8QJ" opacity="1" fill-opacity="0" stroke="#000000" stroke-width="1" stroke-opacity="0"></use></g></g><g><use xlink:href="#g13sdp6Y4" opacity="1" fill="#000000" fill-opacity="1"></use><g><use xlink:href="#g13sdp6Y4" opacity="1" fill-opacity="0" stroke="#000000" stroke-width="1" stroke-opacity="0"></use></g></g><g><use xlink:href="#a5LqQMO1ff" opacity="1" fill="#000000" fill-opacity="1"></use><g><use xlink:href="#a5LqQMO1ff" opacity="1" fill-opacity="0" stroke="#000000" stroke-width="1" stroke-opacity="0"></use></g></g><g><use xlink:href="#a5wfFrM7Qq" opacity="1" fill="#000000" fill-opacity="1"></use><g><use xlink:href="#a5wfFrM7Qq" opacity="1" fill-opacity="0" stroke="#000000" stroke-width="1" stroke-opacity="0"></use></g></g><g><use xlink:href="#b5ykllZryQ" opacity="1" fill="#6c63ff" fill-opacity="1"></use><g><use xlink:href="#b5ykllZryQ" opacity="1" fill-opacity="0" stroke="#000000" stroke-width="1" stroke-opacity="0"></use></g></g><g><use xlink:href="#dZYdJihC" opacity="1" fill="#fbbebe" fill-opacity="1"></use><g><use xlink:href="#dZYdJihC" opacity="1" fill-opacity="0" stroke="#000000" stroke-width="1" stroke-opacity="0"></use></g></g><g><use xlink:href="#a1uCI001I" opacity="1" fill="#000000" fill-opacity="1"></use><g><use xlink:href="#a1uCI001I" opacity="1" fill-opacity="0" stroke="#000000" stroke-width="1" stroke-opacity="0"></use></g></g><g><use xlink:href="#ad8kGPMG7" opacity="1" fill="#000003" fill-opacity="1"></use><g><use xlink:href="#ad8kGPMG7" opacity="1" fill-opacity="0" stroke="#000000" stroke-width="1" stroke-opacity="0"></use></g></g><g><use xlink:href="#b6A9805tat" opacity="1" fill="#6c63ff" fill-opacity="1"></use><g><use xlink:href="#b6A9805tat" opacity="1" fill-opacity="0" stroke="#000000" stroke-width="1" stroke-opacity="0"></use></g></g><g><use xlink:href="#c2eAe4VJBo" opacity="1" fill="#000000" fill-opacity="1"></use><g><use xlink:href="#c2eAe4VJBo" opacity="1" fill-opacity="0" stroke="#000000" stroke-width="1" stroke-opacity="0"></use></g></g><g><use xlink:href="#bBdNHyup4" opacity="1" fill="#3f3d56" fill-opacity="1"></use><g><use xlink:href="#bBdNHyup4" opacity="1" fill-opacity="0" stroke="#000000" stroke-width="1" stroke-opacity="0"></use></g></g><g><use xlink:href="#b2VZcn1npY" opacity="1" fill="#000000" fill-opacity="1"></use><g><use xlink:href="#b2VZcn1npY" opacity="1" fill-opacity="0" stroke="#000000" stroke-width="1" stroke-opacity="0"></use></g></g><g><use xlink:href="#h2SK02emzg" opacity="1" fill="#000000" fill-opacity="1"></use><g><use xlink:href="#h2SK02emzg" opacity="1" fill-opacity="0" stroke="#000000" stroke-width="1" stroke-opacity="0"></use></g></g><g><use xlink:href="#c2W61LI5Q4" opacity="1" fill="#3f3d56" fill-opacity="1"></use><g><use xlink:href="#c2W61LI5Q4" opacity="1" fill-opacity="0" stroke="#000000" stroke-width="1" stroke-opacity="0"></use></g></g><g><use xlink:href="#c6qn8BkoVr" opacity="1" fill="#000000" fill-opacity="1"></use><g><use xlink:href="#c6qn8BkoVr" opacity="1" fill-opacity="0" stroke="#000000" stroke-width="1" stroke-opacity="0"></use></g></g><g><use xlink:href="#c1FF34ZyyD" opacity="1" fill="#3f3d56" fill-opacity="1"></use><g><use xlink:href="#c1FF34ZyyD" opacity="1" fill-opacity="0" stroke="#000000" stroke-width="1" stroke-opacity="0"></use></g></g><g><use xlink:href="#c16gDdcSRo" opacity="1" fill="#000000" fill-opacity="1"></use><g><use xlink:href="#c16gDdcSRo" opacity="1" fill-opacity="0" stroke="#000000" stroke-width="1" stroke-opacity="0"></use></g></g><g><use xlink:href="#gWY1qzIM2" opacity="1" fill="#000000" fill-opacity="1"></use><g><use xlink:href="#gWY1qzIM2" opacity="1" fill-opacity="0" stroke="#000000" stroke-width="1" stroke-opacity="0"></use></g></g><g><use xlink:href="#e9WzneHk" opacity="1" fill="#000000" fill-opacity="1"></use><g><use xlink:href="#e9WzneHk" opacity="1" fill-opacity="0" stroke="#000000" stroke-width="1" stroke-opacity="0"></use></g></g><g><use xlink:href="#b2YPuD8mS" opacity="1" fill="#000000" fill-opacity="1"></use><g><use xlink:href="#b2YPuD8mS" opacity="1" fill-opacity="0" stroke="#000000" stroke-width="1" stroke-opacity="0"></use></g></g><g><use xlink:href="#b6XrKZ9Ws" opacity="1" fill="#000000" fill-opacity="1"></use><g><use xlink:href="#b6XrKZ9Ws" opacity="1" fill-opacity="0" stroke="#000000" stroke-width="1" stroke-opacity="0"></use></g></g><g><use xlink:href="#a23Wxmr9LV" opacity="1" fill="#000000" fill-opacity="1"></use><g><use xlink:href="#a23Wxmr9LV" opacity="1" fill-opacity="0" stroke="#000000" stroke-width="1" stroke-opacity="0"></use></g></g><g><use xlink:href="#a1xPnpDMBT" opacity="1" fill="#000000" fill-opacity="1"></use><g><use xlink:href="#a1xPnpDMBT" opacity="1" fill-opacity="0" stroke="#000000" stroke-width="1" stroke-opacity="0"></use></g></g><g><use xlink:href="#hiL8cx6Lv" opacity="1" fill="#000000" fill-opacity="1"></use><g><use xlink:href="#hiL8cx6Lv" opacity="1" fill-opacity="0" stroke="#000000" stroke-width="1" stroke-opacity="0"></use></g></g><g><use xlink:href="#a1JnbK2AF" opacity="1" fill="#000000" fill-opacity="1"></use><g><use xlink:href="#a1JnbK2AF" opacity="1" fill-opacity="0" stroke="#000000" stroke-width="1" stroke-opacity="0"></use></g></g><g><use xlink:href="#c2aNLOdBjI" opacity="1" fill="#000000" fill-opacity="1"></use><g><use xlink:href="#c2aNLOdBjI" opacity="1" fill-opacity="0" stroke="#000000" stroke-width="1" stroke-opacity="0"></use></g></g><g><use xlink:href="#a12XSatRIg" opacity="1" fill="#000000" fill-opacity="1"></use><g><use xlink:href="#a12XSatRIg" opacity="1" fill-opacity="0" stroke="#000000" stroke-width="1" stroke-opacity="0"></use></g></g><g><use xlink:href="#d42XIZNjsb" opacity="1" fill="#000000" fill-opacity="0"></use><g><use xlink:href="#d42XIZNjsb" opacity="1" fill-opacity="0" stroke="#6c63ff" stroke-width="2" stroke-opacity="1"></use></g></g><g><use xlink:href="#a1akHqYwO" opacity="1" fill="#000000" fill-opacity="0"></use><g><use xlink:href="#a1akHqYwO" opacity="1" fill-opacity="0" stroke="#6c63ff" stroke-width="2" stroke-opacity="1"></use></g></g><g><use xlink:href="#atrdBaOCn" opacity="1" fill="#000000" fill-opacity="0"></use><g><use xlink:href="#atrdBaOCn" opacity="1" fill-opacity="0" stroke="#6c63ff" stroke-width="2" stroke-opacity="1"></use></g></g></g></g></svg>